<svg xmlns="http://www.w3.org/2000/svg" xmlns:xlink="http://www.w3.org/1999/xlink" id="Group_80" data-name="Group 80" width="144" height="144.001" viewBox="0 0 144 144.001"><defs><clipPath id="clip-path"><rect id="Rectangle_45" data-name="Rectangle 45" width="144" height="144.001" fill="#4a9caf"></rect></clipPath></defs><g id="Group_79" data-name="Group 79" clip-path="url(#clip-path)"><path id="Path_60" data-name="Path 60" d="M30.883,376.387c-9.076-2.824-12.351-14.527-12.383-14.646a2.321,2.321,0,0,0-4.485.019c-.03.109-3.258,11.791-12.381,14.632a2.322,2.322,0,0,0,0,4.436c9.076,2.824,12.351,14.527,12.383,14.646a2.321,2.321,0,0,0,4.485-.019c.03-.109,3.258-11.791,12.381-14.632a2.322,2.322,0,0,0,0-4.436M16.259,388.661A26.081,26.081,0,0,0,7.7,378.607a26.083,26.083,0,0,0,8.563-10.054,26.069,26.069,0,0,0,8.565,10.054,26.069,26.069,0,0,0-8.565,10.054" transform="translate(0 -255.508)" fill="#4a9caf"></path><path id="Path_61" data-name="Path 61" d="M437.625,339.765c-5.651-1.893-7.75-9.905-7.771-9.987a2.323,2.323,0,0,0-2.248-1.751,2.378,2.378,0,0,0-2.248,1.74c-.021.088-2.12,8.1-7.771,9.987a2.322,2.322,0,0,0,0,4.413c5.651,1.886,7.75,9.9,7.771,9.973a2.321,2.321,0,0,0,4.5.026c.021-.088,2.12-8.1,7.771-9.987a2.322,2.322,0,0,0,0-4.413m-10.019,7.752a18.722,18.722,0,0,0-4.545-5.555,18.721,18.721,0,0,0,4.545-5.555,18.721,18.721,0,0,0,4.545,5.555,18.722,18.722,0,0,0-4.545,5.555" transform="translate(-295.223 -232.798)" fill="#4a9caf"></path><path id="Path_62" data-name="Path 62" d="M49.587,40.165c5.651,1.886,7.75,9.9,7.771,9.973a2.321,2.321,0,0,0,4.5.026c.021-.088,2.12-8.1,7.771-9.987a2.322,2.322,0,0,0,0-4.413c-5.651-1.893-7.75-9.905-7.771-9.987a2.323,2.323,0,0,0-2.248-1.751,2.281,2.281,0,0,0-2.248,1.74c-.021.088-2.12,8.1-7.771,9.987a2.322,2.322,0,0,0,0,4.413m10.019-7.759a18.722,18.722,0,0,0,4.545,5.555,18.722,18.722,0,0,0-4.545,5.555,18.722,18.722,0,0,0-4.545-5.555,18.722,18.722,0,0,0,4.545-5.555" transform="translate(-34.057 -17.051)" fill="#4a9caf"></path><path id="Path_63" data-name="Path 63" d="M425.567,29.829c3.279,1.166,5.072,5.908,5.483,7.634a2.317,2.317,0,0,0,4.513,0c.413-1.728,2.206-6.475,5.486-7.636a2.322,2.322,0,0,0,0-4.376c-3.279-1.166-5.072-5.908-5.486-7.636a2.316,2.316,0,0,0-4.51,0c-.413,1.728-2.206,6.475-5.486,7.636a2.323,2.323,0,0,0,0,4.376m7.741-5.514a14.974,14.974,0,0,0,2.641,3.323,14.974,14.974,0,0,0-2.641,3.323,14.976,14.976,0,0,0-2.641-3.323,14.976,14.976,0,0,0,2.641-3.323" transform="translate(-300.926 -11.374)" fill="#4a9caf"></path><path id="Path_64" data-name="Path 64" d="M167.479,80.391a12.057,12.057,0,0,0-3.374-8.58,53.021,53.021,0,0,0,1.848-13.742c0-33.643-22.8-58.062-54.214-58.062A52.7,52.7,0,0,0,77.748,11.683,2.324,2.324,0,1,0,80.7,15.271,48.105,48.105,0,0,1,111.74,4.653a50.991,50.991,0,0,1,20.481,4.11c-10.683.111-26.925,2.491-33.758,14.992C86.6,26.6,78.072,33.633,72.781,44.987a2.313,2.313,0,0,0-.493,1.094A74.715,74.715,0,0,0,66.9,68.289a11.922,11.922,0,0,0-3.413.816A48.394,48.394,0,0,1,62.171,58.07a63.291,63.291,0,0,1,2.518-17.923c.007-.022.014-.045.02-.067a2.323,2.323,0,0,0-4.475-1.247A67.87,67.87,0,0,0,57.526,58.07a53.021,53.021,0,0,0,1.848,13.742A12.051,12.051,0,0,0,56,80.391,17.5,17.5,0,0,0,61.609,92.71a19.4,19.4,0,0,0,5.667,3.841C71.925,124.128,90.463,144,111.74,144s39.814-19.873,44.464-47.46A19.4,19.4,0,0,0,161.87,92.7a17.5,17.5,0,0,0,5.609-12.309M141.068,13.854c12.608,9.283,20.24,24.973,20.24,44.216a48.4,48.4,0,0,1-1.348,11.179,14.574,14.574,0,0,0-3.366-.837,74.787,74.787,0,0,0-5.4-22.313,2.318,2.318,0,0,0-.509-1.128c-7.1-15.206-20-22.667-38.943-22.667a64.1,64.1,0,0,0-6.854.356c9.985-11.253,32.439-9.232,36.183-8.805M111.74,26.949c14.278,0,24.588,4.538,31.285,13.989-6.72-2.757-18.058-6.092-33.607-6.092-12.984,0-22.462,2.805-28.471,5.416,6.706-8.991,16.861-13.312,30.794-13.312m46.914,62.424a14.731,14.731,0,0,1-5.316,3.319,2.322,2.322,0,0,0-1.517,1.842c-3.927,25.975-20.782,44.824-40.081,44.824S75.586,120.507,71.649,94.538A2.322,2.322,0,0,0,70.132,92.7a14.743,14.743,0,0,1-5.307-3.323,12.865,12.865,0,0,1-4.18-8.988,7.355,7.355,0,0,1,2.139-5.425,5.134,5.134,0,0,1,.655-.536,8.009,8.009,0,0,1,5-1.556c.158,0,.316,0,.476.009a2.323,2.323,0,0,0,2.413-2.123c.775-9.071,2.5-16.669,5.225-22.855,2.455-1.68,13.5-8.408,32.864-8.408,21.481,0,34.6,6.817,37.557,8.518,2.7,6.166,4.4,13.727,5.174,22.745a2.322,2.322,0,0,0,2.285,2.125,11.4,11.4,0,0,1,5.729,1.633l.015.01a4.224,4.224,0,0,1,.508.431,7.353,7.353,0,0,1,2.148,5.432,12.865,12.865,0,0,1-4.18,8.988" transform="translate(-39.741 0)" fill="#4a9caf"></path><path id="Path_65" data-name="Path 65" d="M171.845,272.793a2.308,2.308,0,0,0,.065-3.251,2.341,2.341,0,0,0-3.275-.109,12.625,12.625,0,0,1-14.107,0,2.323,2.323,0,1,0-3.212,3.356,17.03,17.03,0,0,0,20.528,0" transform="translate(-106.88 -190.758)" fill="#4a9caf"></path><path id="Path_66" data-name="Path 66" d="M287.794,269.432a12.64,12.64,0,0,1-14.088.021l-.021-.02a2.323,2.323,0,0,0-3.21,3.357,17.03,17.03,0,0,0,20.528,0,2.308,2.308,0,0,0,.065-3.251,2.341,2.341,0,0,0-3.275-.109" transform="translate(-191.444 -190.757)" fill="#4a9caf"></path><path id="Path_67" data-name="Path 67" d="M151.882,214.2a2.322,2.322,0,0,0,3.19-.781,7.542,7.542,0,0,1,13.25-.021,2.322,2.322,0,1,0,4.046-2.281,12.183,12.183,0,0,0-21.332.007,2.323,2.323,0,0,0,.846,3.076" transform="translate(-106.996 -145.364)" fill="#4a9caf"></path><path id="Path_68" data-name="Path 68" d="M218.221,238.427Z" transform="translate(-154.869 -169.209)" fill="#4a9caf"></path><path id="Path_69" data-name="Path 69" d="M286.624,206.373a12.2,12.2,0,0,0-16.575,4.766l-.038.067a2.323,2.323,0,1,0,4.084,2.213,7.553,7.553,0,0,1,13.259.014,2.323,2.323,0,0,0,2.016,1.161v.007a2.322,2.322,0,0,0,2.021-3.463,12.194,12.194,0,0,0-4.766-4.766" transform="translate(-191.425 -145.377)" fill="#4a9caf"></path><path id="Path_70" data-name="Path 70" d="M222.869,365.1a2.323,2.323,0,0,0-3.236.565q-.552.608-1.16,1.161a16.936,16.936,0,0,1-23.922-1.161,2.324,2.324,0,0,0-3.742,2.757,21.517,21.517,0,0,0,32.561,0c.022-.028.043-.057.064-.086a2.323,2.323,0,0,0-.565-3.236" transform="translate(-135.094 -258.805)" fill="#4a9caf"></path></g></svg>