<svg xmlns="http://www.w3.org/2000/svg" xmlns:xlink="http://www.w3.org/1999/xlink" width="145" height="145" viewBox="0 0 145 145"><defs><clipPath id="clip-path"><rect id="Rectangle_44" data-name="Rectangle 44" width="145" height="145" transform="translate(0 -0.402)" fill="#4a9caf"></rect></clipPath></defs><g id="Group_77" data-name="Group 77" transform="translate(0 0.402)"><g id="Group_76" data-name="Group 76" clip-path="url(#clip-path)"><path id="Path_51" data-name="Path 51" d="M75.01,49.205a17.331,17.331,0,0,1,5.039,11.032L81.184,81.7c0,.013,0,.027,0,.04a5.64,5.64,0,0,1-5.247,6.046l-.055,0a.511.511,0,0,1-.5-.468L73.934,62.581a2.119,2.119,0,1,0-4.23.248l1.449,24.758c0,.01,0,.021,0,.032A4.723,4.723,0,0,0,72.169,90.2a2.1,2.1,0,0,0,.288.36l8.692,8.692a2.119,2.119,0,0,0,3-3l-4.928-4.928a9.882,9.882,0,0,0,6.2-9.88L84.28,60c0-.012,0-.023,0-.035-.049-.705-.136-1.4-.253-2.1C92.332,45.4,101.358,37.795,112.331,34c10.819,3.235,19.571,10.62,28.221,23.808a21.553,21.553,0,0,0-.263,2.15c0,.012,0,.023,0,.035l-.347,6.559a2.118,2.118,0,0,0,2,2.228c.038,0,.076,0,.114,0a2.119,2.119,0,0,0,2.114-2.007l.347-6.542a17.328,17.328,0,0,1,5.039-11.033l34.424-34.424a2.119,2.119,0,0,0-3-3L158.969,33.8q-.558-.826-1.2-1.595l.215-.731.008-.029a19.972,19.972,0,0,0-8.46-22.3c-1.253-.805-2.533-1.592-3.8-2.339a2.119,2.119,0,0,0-2.145,3.655c1.223.718,2.453,1.474,3.66,2.25a15.734,15.734,0,0,1,7,16.142L142.811,20.2a2.119,2.119,0,0,0-2.556,3.379l11.579,8.759a16.121,16.121,0,0,1,4.064,4.53l-9.338,9.338a21.6,21.6,0,0,0-4.418,6.4c-8.183-11.664-16.668-18.635-26.912-22.127,4.114-9.432,1.7-13.32-.27-16.486-1.431-2.3-2.49-4-1.067-8.174a51.811,51.811,0,0,1,12.951-1.583,23.03,23.03,0,0,1,8.185,1.942A2.119,2.119,0,1,0,136.6,2.245,27.088,27.088,0,0,0,126.843,0a55.616,55.616,0,0,0-14.637,1.888l-.156-.04A55.528,55.528,0,0,0,97.724,0c-5.6,0-13.238,3.077-22.693,9.146a19.98,19.98,0,0,0-8.453,22.325l.214.731c-.423.512-.825,1.042-1.2,1.6l-6.278-6.278a2.119,2.119,0,1,0-3,3Zm36.759-47.2-.01,0L111.81,2l-.016,0-.025.006m-.307.1h0m-1.03.922.007-.011-.007.011m-37.7,29.31,11.579-8.759A2.119,2.119,0,0,0,81.756,20.2L70.32,28.854a15.735,15.735,0,0,1,7-16.142c8.637-5.544,15.693-8.475,20.4-8.475a51.585,51.585,0,0,1,11.809,1.35c-1.474,5.338.27,8.139,1.83,10.646,1.826,2.933,3.41,5.478-.594,13.824C99.826,33.88,90.734,41.132,82.456,52.68a21.593,21.593,0,0,0-4.449-6.471l-9.343-9.343a15.906,15.906,0,0,1,4.07-4.524" transform="translate(-39.965 0)" fill="#4a9caf"></path><path id="Path_52" data-name="Path 52" d="M9.355,51.872a2.119,2.119,0,1,0,3-3L3.617,40.141a2.119,2.119,0,1,0-3,3Z" transform="translate(0 -28.356)" fill="#4a9caf"></path><path id="Path_53" data-name="Path 53" d="M141.018,170.392l-12.824,12.824A10.055,10.055,0,0,0,125.346,189l-2.453,18.85a8.434,8.434,0,0,1-2.4,4.881L100.13,233.1a3.078,3.078,0,1,1-4.353-4.353l16.366-16.367a2.123,2.123,0,0,0,.288-.36,4.726,4.726,0,0,0,1.013-2.587c0-.01,0-.021,0-.032L114.9,184.64a2.119,2.119,0,1,0-4.23-.248l-1.448,24.736a.511.511,0,0,1-.5.468l-.056,0a5.64,5.64,0,0,1-5.247-6.046c0-.014,0-.027,0-.04l.266-5.028a2.119,2.119,0,0,0-4.231-.223l-.265,5.009a9.883,9.883,0,0,0,6.2,9.88l-12.6,12.6c-.022.022-.043.046-.065.069-.048.036-.095.073-.14.114C84.155,233.521,76.96,237.7,72.317,237.7s-11.837-4.181-20.259-11.774c-.042-.038-.086-.072-.131-.107-.025-.025-.048-.052-.073-.077l-.678-.678a2.119,2.119,0,0,0-3,3l.677.677a3.093,3.093,0,0,1,.01,4.366A3.082,3.082,0,0,1,44.5,233.1L24.136,212.728a8.431,8.431,0,0,1-2.394-4.888L19.29,188.995a10.071,10.071,0,0,0-2.848-5.779L3.616,170.391a2.119,2.119,0,0,0-3,3l12.825,12.825a5.808,5.808,0,0,1,1.643,3.332l2.451,18.834a12.686,12.686,0,0,0,3.6,7.346l20.368,20.368a7.307,7.307,0,0,0,12.217-3.172q1.589,1.277,3.1,2.376v8.17a5.767,5.767,0,0,1-4.871,5.717l-19.318,3.111a18.9,18.9,0,0,0-14.4,11.192,2.119,2.119,0,1,0,3.888,1.685,14.678,14.678,0,0,1,11.184-8.694l19.318-3.11a9.987,9.987,0,0,0,8.434-9.9V238.1c4.295,2.553,8.057,3.842,11.25,3.842s6.956-1.289,11.25-3.841v5.368a9.987,9.987,0,0,0,8.434,9.9l19.318,3.11a14.678,14.678,0,0,1,11.184,8.694,2.119,2.119,0,0,0,3.888-1.685,18.9,18.9,0,0,0-14.4-11.192l-19.318-3.111a5.767,5.767,0,0,1-4.87-5.717V235.3q1.515-1.1,3.1-2.376a7.318,7.318,0,0,0,12.217,3.171l20.367-20.367a12.692,12.692,0,0,0,3.6-7.339l2.452-18.842a5.8,5.8,0,0,1,1.643-3.333l12.824-12.824a2.119,2.119,0,1,0-3-3" transform="translate(0.001 -121.812)" fill="#4a9caf"></path><path id="Path_54" data-name="Path 54" d="M229.592,303.379a2.119,2.119,0,0,0,1.247,2.725,15.876,15.876,0,0,0,11.365,0,2.119,2.119,0,0,0-1.478-3.972,11.6,11.6,0,0,1-8.41,0,2.12,2.12,0,0,0-2.724,1.247" transform="translate(-164.638 -216.686)" fill="#4a9caf"></path><path id="Path_55" data-name="Path 55" d="M294.13,209.484a2.119,2.119,0,0,0-1.393-2.653c-4.588-1.429-10.3-3.208-17.091.12a2.119,2.119,0,0,0,1.864,3.805c4.911-2.406,8.719-1.515,13.967.12a2.117,2.117,0,0,0,2.653-1.393" transform="translate(-196.927 -147.129)" fill="#4a9caf"></path><path id="Path_56" data-name="Path 56" d="M186.145,206.951c-6.793-3.329-12.5-1.549-17.091-.12a2.119,2.119,0,1,0,1.26,4.046c5.248-1.635,9.056-2.527,13.967-.12a2.119,2.119,0,0,0,1.864-3.805" transform="translate(-120.229 -147.129)" fill="#4a9caf"></path><path id="Path_57" data-name="Path 57" d="M216.487,346.224a10.384,10.384,0,0,0,4.664,1.1,12.956,12.956,0,0,0,4.535-.875,1.551,1.551,0,0,1,1.082,0,11.209,11.209,0,0,0,9.2-.22,2.119,2.119,0,1,0-1.881-3.8,6.96,6.96,0,0,1-5.837.047,5.783,5.783,0,0,0-4.044,0,6.965,6.965,0,0,1-5.837-.048,2.119,2.119,0,0,0-1.881,3.8" transform="translate(-154.486 -245.466)" fill="#4a9caf"></path><path id="Path_58" data-name="Path 58" d="M172.35,257.425a17.991,17.991,0,0,0,13.077,0,2.119,2.119,0,0,0-1.5-3.964,13.686,13.686,0,0,1-10.079,0,2.119,2.119,0,0,0-1.5,3.964" transform="translate(-122.679 -181.762)" fill="#4a9caf"></path><path id="Path_59" data-name="Path 59" d="M299.477,257.425a2.119,2.119,0,1,0-1.5-3.964,13.686,13.686,0,0,1-10.079,0,2.119,2.119,0,1,0-1.5,3.964,17.99,17.99,0,0,0,13.077,0" transform="translate(-204.512 -181.762)" fill="#4a9caf"></path></g></g></svg>