<svg xmlns="http://www.w3.org/2000/svg" xmlns:xlink="http://www.w3.org/1999/xlink" id="Group_5050" data-name="Group 5050" width="389.707" height="222.092" viewBox="0 0 389.707 222.092"><defs><clipPath id="clip-path"><path id="Path_23" data-name="Path 23" d="M39.107,290.679,22.586,328.9,6.1,290.679H0v47.148H6.273V306.91l13.353,30.947h5.918L38.931,306.9v30.926H45.17V290.679Z" transform="translate(0 -290.679)" fill="none"></path></clipPath><linearGradient id="linear-gradient" x1="0.048" y1="1.941" x2="0.057" y2="1.941" gradientUnits="objectBoundingBox"><stop offset="0" stop-color="#fff"></stop><stop offset="0.023" stop-color="#f2f2f2"></stop><stop offset="0.096" stop-color="#d0d0d0"></stop><stop offset="0.164" stop-color="#b7b7b7"></stop><stop offset="0.227" stop-color="#a8a8a8"></stop><stop offset="0.278" stop-color="#a3a3a3"></stop><stop offset="0.402" stop-color="#d9d9d9"></stop><stop offset="0.481" stop-color="#fff"></stop><stop offset="0.538" stop-color="#dfdfdf"></stop><stop offset="0.611" stop-color="#bcbcbc"></stop><stop offset="0.68" stop-color="#a4a4a4"></stop><stop offset="0.743" stop-color="#959595"></stop><stop offset="0.795" stop-color="#909090"></stop><stop offset="0.833" stop-color="#9e9e9e"></stop><stop offset="0.906" stop-color="#c4c4c4"></stop><stop offset="1" stop-color="#fff"></stop></linearGradient><clipPath id="clip-path-2"><path id="Path_24" data-name="Path 24" d="M119.141,337.857h7.416l7.436-11.76,2.6-4.138,13.313-21.02v36.918h6.239V290.679h-7.173Z" transform="translate(-119.141 -290.679)" fill="none"></path></clipPath><linearGradient id="linear-gradient-2" x1="-1.154" y1="1.966" x2="-1.144" y2="1.966" xlink:href="#linear-gradient"></linearGradient><clipPath id="clip-path-3"><path id="Path_25" data-name="Path 25" d="M228.515,292.069a12.176,12.176,0,0,0-5.966,10.465,10.67,10.67,0,0,0,2.7,7.576c2.407,2.805,6.413,5.007,11.907,6.543,6.79,1.911,10.16,4.58,10.017,7.925a6.293,6.293,0,0,1-2.647,4.683,10.51,10.51,0,0,1-7.308,2.18,12.658,12.658,0,0,1-5.382-1.472,7.205,7.205,0,0,1-3.586-3.8l-.369-.991-5.893,2.14.372,1.006a13.256,13.256,0,0,0,6.082,6.919,18.32,18.32,0,0,0,8.452,2.431c.295.023.6.034.9.034a16.579,16.579,0,0,0,10.675-3.561,12.424,12.424,0,0,0,4.978-9.318,10.838,10.838,0,0,0-2.7-7.635l0,0c-2.409-2.829-6.417-5.042-11.909-6.576-6.787-1.909-10.157-4.535-10.016-7.805a6.214,6.214,0,0,1,2.969-5.408,12.412,12.412,0,0,1,6.991-1.481,10.523,10.523,0,0,1,7.643,3.205l.725.785,4.608-4.275-.727-.781a16.713,16.713,0,0,0-11.96-5.17q-.612-.029-1.208-.03a17.649,17.649,0,0,0-9.343,2.411" transform="translate(-221.99 -289.658)" fill="none"></path></clipPath><linearGradient id="linear-gradient-3" x1="-2.518" y1="1.958" x2="-2.507" y2="1.958" xlink:href="#linear-gradient"></linearGradient><clipPath id="clip-path-4"><path id="Path_26" data-name="Path 26" d="M308.411,290.679v6.272h11.827v40.906h6.272V296.951h11.8v-6.272Z" transform="translate(-308.411 -290.679)" fill="none"></path></clipPath><linearGradient id="linear-gradient-4" x1="-3.705" y1="1.988" x2="-3.693" y2="1.988" xlink:href="#linear-gradient"></linearGradient><clipPath id="clip-path-5"><path id="Path_27" data-name="Path 27" d="M396.105,290.679v47.178H421.23v-6.272H402.377V317.342h14.9v-6.272h-14.9V296.951H421.23v-6.272Z" transform="translate(-396.105 -290.679)" fill="none"></path></clipPath><linearGradient id="linear-gradient-5" x1="-5.532" y1="2.004" x2="-5.517" y2="2.004" xlink:href="#linear-gradient"></linearGradient><clipPath id="clip-path-6"><path id="Path_28" data-name="Path 28" d="M478.955,296.951h10.981a7.138,7.138,0,1,1,0,14.276H478.955Zm-6.27-6.272v47.148h6.27V317.5h9.079l10.572,20.359h7.041l-10.984-21.2a13.418,13.418,0,0,0,4.751-22.022,12.916,12.916,0,0,0-9.479-3.956Z" transform="translate(-472.685 -290.679)" fill="none"></path></clipPath><linearGradient id="linear-gradient-6" x1="-5.256" y1="1.979" x2="-5.245" y2="1.979" xlink:href="#linear-gradient"></linearGradient><clipPath id="clip-path-7"><path id="Path_29" data-name="Path 29" d="M611.631,290.679v47.178H617.9V317.342h14.9v-6.272H617.9V296.951h18.852v-6.272Z" transform="translate(-611.631 -290.679)" fill="none"></path></clipPath><linearGradient id="linear-gradient-7" x1="-8.586" y1="2.004" x2="-8.572" y2="2.004" xlink:href="#linear-gradient"></linearGradient><clipPath id="clip-path-8"><path id="Path_30" data-name="Path 30" d="M680.968,290.679l-29.832,47.178h7.415l7.436-11.76,2.6-4.138L681.9,300.94v36.917h6.241V290.679Z" transform="translate(-651.136 -290.679)" fill="none"></path></clipPath><linearGradient id="linear-gradient-8" x1="-6.568" y1="1.966" x2="-6.558" y2="1.966" xlink:href="#linear-gradient"></linearGradient><clipPath id="clip-path-9"><path id="Path_31" data-name="Path 31" d="M762.277,296.7a24.029,24.029,0,0,0,16.97,41,23.7,23.7,0,0,0,10.7-2.53l.589-.295v-7.39l-1.647,1.072a17.4,17.4,0,0,1-9.646,2.871,17.785,17.785,0,0,1-17.756-17.756,16.959,16.959,0,0,1,5.209-12.548,17.177,17.177,0,0,1,12.547-5.209,17.407,17.407,0,0,1,9.646,2.87l1.647,1.071v-7.391l-.59-.294a23.734,23.734,0,0,0-10.7-2.529,23.169,23.169,0,0,0-16.97,7.055" transform="translate(-755.218 -289.648)" fill="none"></path></clipPath><linearGradient id="linear-gradient-9" x1="-7.924" y1="1.946" x2="-7.914" y2="1.946" xlink:href="#linear-gradient"></linearGradient><clipPath id="clip-path-10"><path id="Path_32" data-name="Path 32" d="M855.422,290.679v47.178h25.125v-6.272H861.694V317.342h14.9v-6.272h-14.9V296.951h18.852v-6.272Z" transform="translate(-855.422 -290.679)" fill="none"></path></clipPath><linearGradient id="linear-gradient-10" x1="-12.041" y1="2.004" x2="-12.027" y2="2.004" xlink:href="#linear-gradient"></linearGradient><clipPath id="clip-path-11"><path id="Path_33" data-name="Path 33" d="M358.218,477.194l-6.934,12.019-6.945-12.019h-1.191l.047.081v18.409h1.039V479.078l7.05,12.181,7.038-12.181v16.607h1.04V477.275l.046-.081Z" transform="translate(-343.147 -477.194)" fill="none"></path></clipPath><linearGradient id="linear-gradient-11" x1="-8" y1="0.97" x2="-7.977" y2="0.97" xlink:href="#linear-gradient"></linearGradient><clipPath id="clip-path-12"><path id="Path_34" data-name="Path 34" d="M392.268,477.194v18.491h9.246v-1.04h-8.206V486.96h8.206v-1.04h-8.206v-7.685h8.206v-1.04Z" transform="translate(-392.268 -477.194)" fill="none"></path></clipPath><linearGradient id="linear-gradient-12" x1="-14.856" y1="0.988" x2="-14.818" y2="0.988" xlink:href="#linear-gradient"></linearGradient><clipPath id="clip-path-13"><path id="Path_35" data-name="Path 35" d="M425.289,478.281h.081a8.555,8.555,0,0,1,6.321,2.207,8.425,8.425,0,0,1,0,11.9,8.528,8.528,0,0,1-6.321,2.218h-.081Zm-1.04-1.087v18.491h1.04v-.023h.081a9.538,9.538,0,0,0,7.073-2.52,9.486,9.486,0,0,0,0-13.406,9.539,9.539,0,0,0-7.073-2.519h-.081v-.023Z" transform="translate(-424.249 -477.194)" fill="none"></path></clipPath><linearGradient id="linear-gradient-13" x1="-13.942" y1="0.984" x2="-13.909" y2="0.984" xlink:href="#linear-gradient"></linearGradient><clipPath id="clip-path-14"><path id="Path_36" data-name="Path 36" d="M481.548,477.829a3.9,3.9,0,0,0,0,5.518,7.834,7.834,0,0,0,3.12,1.8,8.454,8.454,0,0,1,2.809,1.826,4.454,4.454,0,1,1-7.582,3.675l-.982.358a5.476,5.476,0,0,0,9.28,2.993,5.469,5.469,0,0,0,0-7.743,9.162,9.162,0,0,0-3.733-2.23,7.743,7.743,0,0,1-2.172-1.421,2.881,2.881,0,0,1,4.068-4.08,2.864,2.864,0,0,1,.682,1.04l.936-.37a3.276,3.276,0,0,0-.878-1.375,3.927,3.927,0,0,0-5.547.006" transform="translate(-478.913 -476.679)" fill="none"></path></clipPath><linearGradient id="linear-gradient-14" x1="-15.787" y1="0.973" x2="-15.754" y2="0.973" xlink:href="#linear-gradient"></linearGradient><clipPath id="clip-path-15"><path id="Path_37" data-name="Path 37" d="M513.751,478.246h3.143a4.987,4.987,0,0,1,0,9.974h-3.143Zm-1.041-1.052v18.491h1.041v-6.414h3.143a6.039,6.039,0,0,0,4.265-10.309,6.121,6.121,0,0,0-3.594-1.768Z" transform="translate(-512.71 -477.194)" fill="none"></path></clipPath><linearGradient id="linear-gradient-15" x1="-17.9" y1="0.986" x2="-17.865" y2="0.986" xlink:href="#linear-gradient"></linearGradient><clipPath id="clip-path-16"><path id="Path_38" data-name="Path 38" d="M545.7,479.23l2.82,7.755h-5.64Zm-6.889,15.879h1.11l2.577-7.084h6.4l2.577,7.084h1.1L545.7,476.19Z" transform="translate(-538.807 -476.19)" fill="none"></path></clipPath><linearGradient id="linear-gradient-16" x1="-14.539" y1="0.977" x2="-14.512" y2="0.977" xlink:href="#linear-gradient"></linearGradient><clipPath id="clip-path-17"><path id="Path_39" data-name="Path 39" d="M443.246,0l-1.075,1.3c-.446.539-.9,1.072-1.338,1.616l-.644.83c-.214.277-.433.55-.63.84-.4.575-.82,1.136-1.2,1.729l-.578.879c-.186.3-.361.6-.543.9a40.883,40.883,0,0,0-3.559,7.612,35.552,35.552,0,0,0-1.781,8.178,28.665,28.665,0,0,0-.088,4.164,19.176,19.176,0,0,0,.6,4.089,33.524,33.524,0,0,1,.971-8.015,43.769,43.769,0,0,1,2.542-7.542c.277-.6.539-1.207.844-1.794.151-.294.286-.595.444-.885l.465-.875c.642-1.153,1.3-2.3,2.034-3.4l.544-.826.566-.813c.368-.548.778-1.067,1.17-1.6s.816-1.04,1.222-1.561c.046-.055.092-.11.138-.165.045.054.091.106.135.161.418.509.824,1.034,1.216,1.567.8,1.059,1.544,2.16,2.249,3.286a44.766,44.766,0,0,1,3.632,7.085l.187.462.173.468c.113.312.239.622.342.938l.312.948c.1.318.188.638.285.958a32.657,32.657,0,0,1,.878,3.911,34.227,34.227,0,0,1,.348,8.131,23.644,23.644,0,0,0,.924-4.064l.079-.52.047-.523.088-1.05c.018-.7.057-1.407.027-2.112-.013-.352-.011-.707-.042-1.058l-.082-1.057c-.026-.354-.085-.7-.127-1.054l-.069-.527-.09-.523a31.151,31.151,0,0,0-.99-4.135c-.2-.68-.444-1.347-.681-2.017-.258-.66-.521-1.32-.81-1.968a40.6,40.6,0,0,0-1.92-3.8c-.706-1.231-1.48-2.42-2.3-3.58q-.624-.864-1.294-1.7c-.223-.279-.451-.554-.686-.829l-.356-.411c-.124-.14-.238-.266-.389-.423Z" transform="translate(-431.776)" fill="none"></path></clipPath><linearGradient id="linear-gradient-17" x1="-7.024" y1="6.408" x2="-7.008" y2="6.408" xlink:href="#linear-gradient"></linearGradient><clipPath id="clip-path-18"><path id="Path_40" data-name="Path 40" d="M333.3,139.447c-1.35,1.395-2.647,2.843-3.915,4.316s-2.5,2.984-3.682,4.533-2.314,3.141-3.393,4.772c-.549.81-1.061,1.645-1.583,2.475-.5.844-1.009,1.683-1.478,2.548a52.63,52.63,0,0,0-2.581,5.327,36.18,36.18,0,0,0-2.922,11.648l-.1,1.476,1.539.038c2,.05,3.941.038,5.909,0s3.924-.121,5.885-.248a116.865,116.865,0,0,0,11.751-1.3,64.229,64.229,0,0,0,11.632-2.927,32.6,32.6,0,0,0,5.609-2.658,20.709,20.709,0,0,0,2.131-1.5,12.56,12.56,0,0,0,1.036,2.011,13.511,13.511,0,0,0,1.951,2.438,13.97,13.97,0,0,0,1.153,1.039,3.767,3.767,0,0,0,.378.29.083.083,0,0,0,0,.01,9,9,0,0,0,.23,1.074,8.185,8.185,0,0,0,.892,2.094,6.9,6.9,0,0,0,3.7,3,8.253,8.253,0,0,0,2.213.442,7.2,7.2,0,0,0,.791.025h.271c.344-.015.686-.038,1.022-.072a17.5,17.5,0,0,0,3.047-.646l.211.066c.312.09.624.173.941.242a13.665,13.665,0,0,0,1.947.292,9.337,9.337,0,0,0,4.225-.588,7.08,7.08,0,0,0,2.009-1.236,7.623,7.623,0,0,0,1.471-1.806,9.885,9.885,0,0,0,1.064-2.873c.121-.076.241-.154.359-.233.213-.143.416-.3.621-.449s.4-.32.589-.488a11.4,11.4,0,0,0,2.019-2.313l.216-.322.191-.339c.122-.228.26-.45.365-.686l.311-.713.075-.179.061-.185.085-.262.035.019q1.315.7,2.651,1.343c1.783.852,3.6,1.62,5.44,2.32s3.711,1.318,5.6,1.863,3.805,1,5.732,1.4,3.876.679,5.828.911l1.467.149c.489.053.981.075,1.47.114.98.083,1.963.1,2.945.144,1.966.03,3.932.011,5.891-.137,1.96-.118,3.91-.361,5.848-.659l1.543-.237-.346-1.461c-.118-.5-.237-.942-.366-1.405s-.259-.912-.4-1.364c-.271-.905-.566-1.8-.869-2.692q-.92-2.67-2.016-5.269c-.733-1.731-1.516-3.44-2.38-5.108s-1.794-3.3-2.784-4.9-2.06-3.14-3.188-4.637A50.658,50.658,0,0,0,420,143.712l-.981-1L418,141.747c-.334-.326-.69-.63-1.048-.93s-.7-.614-1.077-.894a38.816,38.816,0,0,0-4.6-3.148l1.111.835c.184.141.373.273.551.421l.534.443c.352.3.719.579,1.058.893l1.019.935c.344.306.654.649.982.971s.652.648.957.993l.93,1.016.888,1.054a49.518,49.518,0,0,1,3.258,4.427c1.01,1.527,1.967,3.088,2.827,4.7s1.674,3.253,2.415,4.924,1.426,3.366,2.053,5.082,1.2,3.45,1.709,5.2c.252.876.495,1.754.713,2.635.09.359.174.719.257,1.078a65.266,65.266,0,0,1-9.68.168c-.932-.069-1.865-.116-2.793-.225-.465-.051-.93-.086-1.393-.151l-1.389-.185c-1.847-.278-3.687-.606-5.506-1.026s-3.624-.9-5.407-1.457-3.538-1.193-5.271-1.882-3.436-1.449-5.1-2.281q-1.246-.623-2.456-1.3-.6-.339-1.192-.69l-.58-.353-.282-.177-.254-.165-2.785-1.814-.4,3.4-.06.5a3.367,3.367,0,0,1-.072.5,6.747,6.747,0,0,1-.25.957l-.077.234-.038.117-.051.111-.2.446c-.066.149-.16.284-.236.428l-.12.214-.141.2a7.247,7.247,0,0,1-1.318,1.478c-.127.109-.261.21-.39.317s-.27.2-.408.288-.278.179-.416.256c-.07.043-.135.075-.2.11-.035.019-.065.034-.091.046l-.041.02-.007,0h0l-1.171.97-.092.707a6.494,6.494,0,0,1-.717,2.346,3.43,3.43,0,0,1-.618.762,2.841,2.841,0,0,1-.813.489,5.17,5.17,0,0,1-2.307.275,9.4,9.4,0,0,1-1.336-.208c-.225-.049-.448-.11-.668-.174q-.165-.049-.324-.1l-.152-.053-.11-.041-.76-.283-.722.237a15.1,15.1,0,0,1-2.866.675c-.229.023-.453.038-.675.05-.075,0-.15,0-.226,0a3.011,3.011,0,0,1-.411-.013,4.018,4.018,0,0,1-1.115-.211,2.657,2.657,0,0,1-1.48-1.188,3.972,3.972,0,0,1-.437-1.027,4.779,4.779,0,0,1-.128-.589c-.017-.1-.029-.2-.038-.294l-.012-.138a.639.639,0,0,0,0-.071l-.965-1.794-.456-.324a4.964,4.964,0,0,1-.448-.331,10.1,10.1,0,0,1-.826-.73,9.283,9.283,0,0,1-1.38-1.683,9.035,9.035,0,0,1-.953-1.947,9.477,9.477,0,0,1-.3-1.033c-.032-.172-.073-.346-.093-.511-.015-.086-.025-.165-.032-.242,0-.04-.009-.08-.011-.108s-.005-.077-.005-.054l-3.737-1.164a13.23,13.23,0,0,1-3.705,3.345,28.666,28.666,0,0,1-4.868,2.4,63.827,63.827,0,0,1-10.88,2.983c-3.742.707-7.545,1.224-11.367,1.586q-2.868.268-5.748.445c-1.4.082-2.821.149-4.223.188a35.01,35.01,0,0,1,2.134-9.338c.168-.442.316-.89.5-1.326l.54-1.315c.385-.867.766-1.738,1.186-2.593.4-.863.848-1.708,1.284-2.558.459-.838.909-1.682,1.4-2.507q1.438-2.488,3.046-4.885c1.064-1.6,2.163-3.184,3.309-4.734,2.3-3.093,4.719-6.114,7.316-8.988-1.441,1.3-2.809,2.673-4.157,4.069" transform="translate(-313.65 -135.378)" fill="none"></path></clipPath><linearGradient id="linear-gradient-18" x1="-1.04" y1="2.949" x2="-1.037" y2="2.949" xlink:href="#linear-gradient"></linearGradient><clipPath id="clip-path-19"><path id="Path_41" data-name="Path 41" d="M438.695,19.273c-1.559.464-2.959,1-4.4,1.575-1.422.582-2.826,1.2-4.2,1.876s-2.734,1.386-4.075,2.126l-1.979,1.168L422.1,27.248a69.456,69.456,0,0,0-7.347,5.518,73.513,73.513,0,0,0-6.54,6.452,64.458,64.458,0,0,0-5.55,7.306,62.964,62.964,0,0,0-4.4,8.022,61.978,61.978,0,0,0-4.918,17.392,61.971,61.971,0,0,0-4.918-17.392,62.874,62.874,0,0,0-4.4-8.022,64.526,64.526,0,0,0-5.55-7.306,73.354,73.354,0,0,0-6.541-6.452,69.482,69.482,0,0,0-7.346-5.518l-1.942-1.229-1.979-1.168c-1.341-.74-2.692-1.464-4.074-2.126s-2.78-1.294-4.2-1.876c-1.437-.58-2.837-1.111-4.4-1.575l-2.093-.624.239,2.113.327,2.89c.062.48.093.965.181,1.441l.266,1.424c.191.946.326,1.9.563,2.838l.71,2.8c.107.47.252.927.4,1.383l.444,1.369c.294.913.582,1.827.94,2.716l1.025,2.68,1.14,2.628a94.8,94.8,0,0,0,5.353,10.08c.508.8.994,1.617,1.518,2.408s1.046,1.582,1.6,2.351q1.616,2.337,3.435,4.522c-2.009-3.2-3.808-6.515-5.5-9.866-1.664-3.367-3.2-6.786-4.53-10.277A82.753,82.753,0,0,1,350.7,31.5l-.6-2.708c-.2-.9-.3-1.82-.458-2.728l-.215-1.365c-.072-.454-.085-.915-.131-1.372l-.047-.551c.68.254,1.363.528,2.028.805,1.352.569,2.692,1.175,4.007,1.836a81,81,0,0,1,7.669,4.363A73.437,73.437,0,0,1,370.063,35,70.727,70.727,0,0,1,376.523,41a75.163,75.163,0,0,1,5.64,6.8l1.264,1.819c.432.6.79,1.247,1.2,1.863.825,1.23,1.512,2.541,2.256,3.825a78.315,78.315,0,0,1,6.466,16.636l0,.022c0-.006,0-.011.005-.017l0,.017,0-.022a78.317,78.317,0,0,1,6.465-16.636c.744-1.283,1.43-2.595,2.255-3.825.41-.616.767-1.263,1.2-1.863l1.263-1.819a75.3,75.3,0,0,1,5.64-6.8A70.735,70.735,0,0,1,416.633,35a73.5,73.5,0,0,1,7.117-5.212,80.956,80.956,0,0,1,7.669-4.363c1.314-.661,2.655-1.267,4.007-1.836.666-.277,1.349-.551,2.028-.805l-.046.551c-.046.457-.06.917-.131,1.372l-.215,1.365c-.156.908-.256,1.826-.459,2.728L436,31.5a82.8,82.8,0,0,1-3.327,10.643c-1.326,3.491-2.865,6.91-4.53,10.277-1.7,3.351-3.494,6.663-5.5,9.866q1.815-2.179,3.435-4.522c.555-.769,1.067-1.566,1.6-2.351s1.01-1.605,1.518-2.408a94.864,94.864,0,0,0,5.353-10.08l1.141-2.628,1.024-2.68c.358-.889.646-1.8.94-2.716l.444-1.369c.153-.455.3-.913.406-1.383l.71-2.8c.237-.933.372-1.892.563-2.838l.266-1.424c.088-.475.119-.96.181-1.441l.327-2.89.239-2.113Z" transform="translate(-345.908 -18.649)" fill="none"></path></clipPath><linearGradient id="linear-gradient-19" x1="-1.447" y1="3.464" x2="-1.443" y2="3.464" xlink:href="#linear-gradient"></linearGradient><clipPath id="clip-path-20"><path id="Path_42" data-name="Path 42" d="M429.846,140.559a11.666,11.666,0,0,1,11.665,11.665,11.666,11.666,0,0,1,11.665-11.665,11.666,11.666,0,0,1-11.665-11.665,11.666,11.666,0,0,1-11.665,11.665" transform="translate(-429.846 -128.894)" fill="none"></path></clipPath><linearGradient id="linear-gradient-20" x1="-7.079" y1="6.547" x2="-7.062" y2="6.547" xlink:href="#linear-gradient"></linearGradient></defs><g id="Group_24" data-name="Group 24" transform="translate(0 123.888)"><g id="Group_23" data-name="Group 23" clip-path="url(#clip-path)"><rect id="Rectangle_14" data-name="Rectangle 14" width="50" height="51.78" transform="translate(-5.064 0.55) rotate(-6.199)" fill="url(#linear-gradient)"></rect></g></g><g id="Group_26" data-name="Group 26" transform="translate(50.778 123.888)"><g id="Group_25" data-name="Group 25" clip-path="url(#clip-path-2)"><rect id="Rectangle_15" data-name="Rectangle 15" width="41.883" height="50.898" transform="matrix(0.994, -0.108, 0.108, 0.994, -5.065, 0.55)" fill="url(#linear-gradient-2)"></rect></g></g><g id="Group_28" data-name="Group 28" transform="translate(94.613 123.453)"><g id="Group_27" data-name="Group 27" clip-path="url(#clip-path-3)"><rect id="Rectangle_16" data-name="Rectangle 16" width="36.574" height="51.181" transform="translate(-5.158 0.56) rotate(-6.199)" fill="url(#linear-gradient-3)"></rect></g></g><g id="Group_30" data-name="Group 30" transform="translate(131.445 123.888)"><g id="Group_29" data-name="Group 29" clip-path="url(#clip-path-4)"><rect id="Rectangle_17" data-name="Rectangle 17" width="34.814" height="50.13" transform="translate(-5.064 0.55) rotate(-6.199)" fill="url(#linear-gradient-4)"></rect></g></g><g id="Group_32" data-name="Group 32" transform="translate(168.821 123.888)"><g id="Group_31" data-name="Group 31" clip-path="url(#clip-path-5)"><rect id="Rectangle_18" data-name="Rectangle 18" width="30.072" height="49.615" transform="matrix(0.994, -0.108, 0.108, 0.994, -5.064, 0.55)" fill="url(#linear-gradient-5)"></rect></g></g><g id="Group_34" data-name="Group 34" transform="translate(201.459 123.888)"><g id="Group_33" data-name="Group 33" clip-path="url(#clip-path-6)"><rect id="Rectangle_19" data-name="Rectangle 19" width="37.864" height="50.461" transform="translate(-5.065 0.55) rotate(-6.199)" fill="url(#linear-gradient-6)"></rect></g></g><g id="Group_36" data-name="Group 36" transform="translate(260.678 123.888)"><g id="Group_35" data-name="Group 35" clip-path="url(#clip-path-7)"><rect id="Rectangle_20" data-name="Rectangle 20" width="30.072" height="49.615" transform="translate(-5.065 0.55) rotate(-6.199)" fill="url(#linear-gradient-7)"></rect></g></g><g id="Group_38" data-name="Group 38" transform="translate(277.515 123.888)"><g id="Group_37" data-name="Group 37" clip-path="url(#clip-path-8)"><rect id="Rectangle_21" data-name="Rectangle 21" width="41.882" height="50.898" transform="translate(-5.065 0.55) rotate(-6.199)" fill="url(#linear-gradient-8)"></rect></g></g><g id="Group_40" data-name="Group 40" transform="translate(321.875 123.449)"><g id="Group_39" data-name="Group 39" clip-path="url(#clip-path-9)"><rect id="Rectangle_22" data-name="Rectangle 22" width="40.304" height="51.59" transform="translate(-5.159 0.56) rotate(-6.199)" fill="url(#linear-gradient-9)"></rect></g></g><g id="Group_42" data-name="Group 42" transform="translate(364.582 123.888)"><g id="Group_41" data-name="Group 41" clip-path="url(#clip-path-10)"><rect id="Rectangle_23" data-name="Rectangle 23" width="30.072" height="49.615" transform="matrix(0.994, -0.108, 0.108, 0.994, -5.065, 0.55)" fill="url(#linear-gradient-10)"></rect></g></g><g id="Group_44" data-name="Group 44" transform="translate(146.25 203.381)"><g id="Group_43" data-name="Group 43" clip-path="url(#clip-path-11)"><rect id="Rectangle_24" data-name="Rectangle 24" width="18.162" height="20.138" transform="translate(-1.985 0.216) rotate(-6.199)" fill="url(#linear-gradient-11)"></rect></g></g><g id="Group_46" data-name="Group 46" transform="translate(167.185 203.381)"><g id="Group_45" data-name="Group 45" clip-path="url(#clip-path-12)"><rect id="Rectangle_25" data-name="Rectangle 25" width="11.188" height="19.381" transform="translate(-1.985 0.216) rotate(-6.199)" fill="url(#linear-gradient-12)"></rect></g></g><g id="Group_48" data-name="Group 48" transform="translate(180.816 203.381)"><g id="Group_47" data-name="Group 47" clip-path="url(#clip-path-13)"><rect id="Rectangle_26" data-name="Rectangle 26" width="12.9" height="19.567" transform="translate(-1.985 0.216) rotate(-6.199)" fill="url(#linear-gradient-13)"></rect></g></g><g id="Group_50" data-name="Group 50" transform="translate(204.114 203.161)"><g id="Group_49" data-name="Group 49" clip-path="url(#clip-path-14)"><rect id="Rectangle_27" data-name="Rectangle 27" width="12.866" height="19.995" transform="matrix(0.994, -0.108, 0.108, 0.994, -2.032, 0.221)" fill="url(#linear-gradient-14)"></rect></g></g><g id="Group_52" data-name="Group 52" transform="translate(218.518 203.381)"><g id="Group_51" data-name="Group 51" clip-path="url(#clip-path-15)"><rect id="Rectangle_28" data-name="Rectangle 28" width="12.154" height="19.486" transform="translate(-1.985 0.216) rotate(-6.199)" fill="url(#linear-gradient-15)"></rect></g></g><g id="Group_54" data-name="Group 54" transform="translate(229.641 202.953)"><g id="Group_53" data-name="Group 53" clip-path="url(#clip-path-16)"><rect id="Rectangle_29" data-name="Rectangle 29" width="15.727" height="20.294" transform="translate(-2.031 0.221) rotate(-6.199)" fill="url(#linear-gradient-16)"></rect></g></g><g id="Group_56" data-name="Group 56" transform="translate(184.024)"><g id="Group_55" data-name="Group 55" clip-path="url(#clip-path-17)"><rect id="Rectangle_30" data-name="Rectangle 30" width="25.953" height="34.831" transform="matrix(0.994, -0.108, 0.108, 0.994, -3.535, 0.38)" fill="url(#linear-gradient-17)"></rect></g></g><g id="Group_58" data-name="Group 58" transform="translate(133.678 57.698)"><g id="Group_57" data-name="Group 57" clip-path="url(#clip-path-18)"><rect id="Rectangle_31" data-name="Rectangle 31" width="126.495" height="57.948" transform="matrix(0.994, -0.108, 0.108, 0.994, -4.831, 0.525)" fill="url(#linear-gradient-18)"></rect></g></g><g id="Group_60" data-name="Group 60" transform="translate(147.427 7.948)"><g id="Group_59" data-name="Group 59" clip-path="url(#clip-path-19)"><rect id="Rectangle_32" data-name="Rectangle 32" width="100.082" height="63.254" transform="matrix(0.994, -0.108, 0.108, 0.994, -5.724, 0.622)" fill="url(#linear-gradient-19)"></rect></g></g><g id="Group_62" data-name="Group 62" transform="translate(183.201 54.935)"><g id="Group_61" data-name="Group 61" clip-path="url(#clip-path-20)"><rect id="Rectangle_33" data-name="Rectangle 33" width="25.713" height="25.713" transform="translate(-2.504 0.272) rotate(-6.199)" fill="url(#linear-gradient-20)"></rect></g></g></svg>