<svg xmlns="http://www.w3.org/2000/svg" xmlns:xlink="http://www.w3.org/1999/xlink" id="Group_84" data-name="Group 84" width="143.98" height="144" viewBox="0 0 143.98 144"><defs><clipPath id="clip-path"><rect id="Rectangle_49" data-name="Rectangle 49" width="143.98" height="144" fill="#4a9caf"></rect></clipPath></defs><g id="Group_83" data-name="Group 83" clip-path="url(#clip-path)"><path id="Path_75" data-name="Path 75" d="M143.32,114.705,112.273,83.658a4.493,4.493,0,0,1,.484-.331l8.275-4.4a9.166,9.166,0,0,0,3.953-12.171l-4.122-8.43a4.675,4.675,0,0,1,0-4.131l4.122-8.43a9.166,9.166,0,0,0-3.953-12.171l-8.284-4.4a4.668,4.668,0,0,1-2.425-3.341L108.7,16.611A9.166,9.166,0,0,0,98.352,9.088L89.06,10.4a4.724,4.724,0,0,1-3.928-1.276L78.383,2.6a9.163,9.163,0,0,0-12.8,0L58.837,9.128A4.724,4.724,0,0,1,54.909,10.4L45.615,9.088a9.17,9.17,0,0,0-10.349,7.523l-1.622,9.242a4.664,4.664,0,0,1-2.427,3.341l-8.275,4.4a9.166,9.166,0,0,0-3.953,12.171l4.122,8.43a4.675,4.675,0,0,1,0,4.131l-4.131,8.43a9.166,9.166,0,0,0,3.953,12.171l8.293,4.4a4.694,4.694,0,0,1,.481.331L.66,114.7a2.25,2.25,0,0,0,1.084,3.784l19.31,4.457,4.457,19.31a2.25,2.25,0,0,0,3.784,1.084L64.128,108.5l1.46,1.415a9.165,9.165,0,0,0,12.8,0l1.46-1.415,34.84,34.84a2.25,2.25,0,0,0,3.784-1.084l4.457-19.31,19.31-4.457a2.25,2.25,0,0,0,1.084-3.784ZM28.976,137.288l-3.858-16.725a2.25,2.25,0,0,0-1.687-1.687L6.705,115.018,33.862,87.861l1.411,8.045a9.174,9.174,0,0,0,10.349,7.523l9.292-1.316a4.738,4.738,0,0,1,3.928,1.276l2.05,1.982ZM68.718,106.68l-3.026-2.925-3.721-3.6a9.146,9.146,0,0,0-6.378-2.592,9.543,9.543,0,0,0-1.307.092l-9.3,1.316A4.675,4.675,0,0,1,39.7,95.128l-1.622-9.242a9.177,9.177,0,0,0-1.125-2.974,2.3,2.3,0,0,0-.178-.315,9.113,9.113,0,0,0-3.438-3.249l-8.29-4.4a4.682,4.682,0,0,1-2.025-6.218l4.122-8.423a9.165,9.165,0,0,0,0-8.086l-4.122-8.43a4.682,4.682,0,0,1,2.025-6.218l8.288-4.4a9.138,9.138,0,0,0,4.751-6.538L39.71,17.4a4.666,4.666,0,0,1,5.28-3.852l9.294,1.316a9.156,9.156,0,0,0,7.685-2.5l6.749-6.524a4.679,4.679,0,0,1,6.538,0l6.749,6.524a9.154,9.154,0,0,0,7.683,2.5l9.3-1.318a4.673,4.673,0,0,1,5.289,3.845l1.622,9.242a9.144,9.144,0,0,0,4.749,6.538l8.29,4.4a4.682,4.682,0,0,1,2.025,6.218l-4.131,8.423a9.165,9.165,0,0,0,0,8.086l4.122,8.43a4.682,4.682,0,0,1-2.025,6.218l-8.288,4.4a9.138,9.138,0,0,0-4.751,6.538l-1.622,9.242a4.677,4.677,0,0,1-5.28,3.852l-9.3-1.318a9.158,9.158,0,0,0-7.685,2.5l-6.749,6.524A4.679,4.679,0,0,1,68.718,106.68Zm51.826,12.2a2.25,2.25,0,0,0-1.687,1.687L115,137.288,83.08,105.371l2.047-1.982a4.747,4.747,0,0,1,3.928-1.276l9.294,1.316A9.172,9.172,0,0,0,108.7,95.906l1.411-8.045,27.159,27.157Z" transform="translate(0 0)" fill="#4a9caf"></path><path id="Path_76" data-name="Path 76" d="M203.463,113.754a33.726,33.726,0,0,0-8.171-22.014,2.25,2.25,0,1,0-3.6,2.7,2.214,2.214,0,0,0,.2.228,29.213,29.213,0,1,1-5.9-5.233,2.25,2.25,0,0,0,2.615-3.661c-.036-.025-.072-.05-.109-.073a33.746,33.746,0,1,0,14.974,28.057" transform="translate(-97.73 -57.496)" fill="#4a9caf"></path><path id="Path_77" data-name="Path 77" d="M225.635,160.619,208.1,179.081l-8.4-9.566a2.25,2.25,0,0,0-3.543,2.773,2.275,2.275,0,0,0,.168.192L206.343,183.9a2.25,2.25,0,0,0,1.647.767h.045a2.25,2.25,0,0,0,1.631-.7l19.224-20.248a2.25,2.25,0,0,0-3.163-3.2q-.051.051-.1.1Z" transform="translate(-140.656 -114.908)" fill="#4a9caf"></path></g></svg>