<svg xmlns="http://www.w3.org/2000/svg" xmlns:xlink="http://www.w3.org/1999/xlink" width="144" height="144" viewBox="0 0 144 144"><defs><clipPath id="clip-path"><rect id="Rectangle_48" data-name="Rectangle 48" width="144" height="144" transform="translate(0)" fill="#4a9caf"></rect></clipPath></defs><g id="Group_82" data-name="Group 82" transform="translate(0.246)"><g id="Group_81" data-name="Group 81" transform="translate(-0.246)" clip-path="url(#clip-path)"><path id="Path_71" data-name="Path 71" d="M344.163,245.856H339.67V218.841a11.1,11.1,0,0,0-8.285-20.008l-14.239-14.239a8.891,8.891,0,0,0-2.572-5.751,9.2,9.2,0,0,0-12.709,0l-8.986,8.986a8.9,8.9,0,0,0-1.366,10.9l-2.855,2.855a2.247,2.247,0,1,0,3.177,3.179l2.855-2.855a8.9,8.9,0,0,0,10.9-1.366l4.221-4.221,12.046,12.046a11.355,11.355,0,0,0-.155,1.548,11.188,11.188,0,0,0,4.493,8.93v27.015H321.7a6.748,6.748,0,0,0-6.74,6.74v15.726a2.247,2.247,0,0,0,2.247,2.247h31.452a2.247,2.247,0,0,0,2.247-2.247V252.6A6.748,6.748,0,0,0,344.163,245.856Zm-4.493-35.945a6.74,6.74,0,1,1-6.74-6.74,6.748,6.748,0,0,1,6.74,6.74m-37.262-12.549a4.6,4.6,0,0,1-6.353,0,4.491,4.491,0,0,1,0-6.353l8.986-8.986a4.492,4.492,0,1,1,6.353,6.353Zm10.575-4.221,1.588-1.588a8.98,8.98,0,0,0,1.364-1.813l10.81,10.81a11.316,11.316,0,0,0-3.177,3.177Zm17.7,27.777a11.235,11.235,0,0,0,4.493,0v24.939h-4.493Zm15.726,45.158H319.451V252.6a2.25,2.25,0,0,1,2.247-2.247h22.466a2.25,2.25,0,0,1,2.247,2.247Z" transform="translate(-206.902 -126.788)" fill="#4a9caf"></path><path id="Path_72" data-name="Path 72" d="M29.205,245.862H24.712V218.847a10.57,10.57,0,0,0,4.338-10.476L41.1,196.325l4.219,4.221a8.9,8.9,0,0,0,10.9,1.364l2.855,2.855a2.247,2.247,0,0,0,3.179-3.177l-2.855-2.855a8.9,8.9,0,0,0-1.366-10.9l-8.986-8.986a9.2,9.2,0,0,0-12.709,0,8.9,8.9,0,0,0-2.575,5.751L19.516,198.842a10.883,10.883,0,0,0-1.543-.157,11.2,11.2,0,0,0-6.74,20.163v27.015H6.74A6.748,6.748,0,0,0,0,252.6v15.726a2.247,2.247,0,0,0,2.247,2.247H33.7a2.247,2.247,0,0,0,2.247-2.247V252.6a6.748,6.748,0,0,0-6.74-6.74m10.3-63.834a4.491,4.491,0,0,1,6.353,0l8.986,8.986a4.491,4.491,0,0,1,0,6.353,4.6,4.6,0,0,1-6.353,0l-8.986-8.986a4.491,4.491,0,0,1,0-6.353Zm-4.543,7.717a9.042,9.042,0,0,0,1.364,1.813l1.588,1.588L27.332,203.732a11.316,11.316,0,0,0-3.177-3.177ZM17.973,203.177a6.74,6.74,0,1,1-6.74,6.74,6.748,6.748,0,0,1,6.74-6.74m2.247,17.746v24.939H15.726V220.923a11.235,11.235,0,0,0,4.493,0m11.233,45.158H4.493V252.6a2.25,2.25,0,0,1,2.247-2.247H29.205a2.25,2.25,0,0,1,2.247,2.247Z" transform="translate(0.22 -126.794)" fill="#4a9caf"></path><path id="Path_73" data-name="Path 73" d="M200.164,360.986A9,9,0,0,0,191.178,352H159.726a9,9,0,0,0-8.986,8.986,6.748,6.748,0,0,0-6.74,6.74v4.493a6.748,6.748,0,0,0,6.74,6.74h13.479v13.479h-6.926a2.247,2.247,0,0,0,0,4.493h36.132a2.247,2.247,0,0,0,0-4.493h-6.74V378.959h13.479a6.748,6.748,0,0,0,6.74-6.74v-4.493a6.748,6.748,0,0,0-6.74-6.74m-40.438-4.493h31.452a4.5,4.5,0,0,1,4.493,4.493H155.233a4.5,4.5,0,0,1,4.493-4.493m22.466,35.945H168.712V378.959h13.479Zm20.219-20.219a2.25,2.25,0,0,1-2.247,2.247H150.74a2.25,2.25,0,0,1-2.247-2.247v-4.493a2.25,2.25,0,0,1,2.247-2.247h49.424a2.25,2.25,0,0,1,2.247,2.247Z" transform="translate(-103.342 -253.151)" fill="#4a9caf"></path><path id="Path_74" data-name="Path 74" d="M169.7,47.178c16.335,0,33.7-4.725,33.7-13.479V22.466c0-7.553-12.922-12.1-26.959-13.205V2.247A2.247,2.247,0,0,0,174.192,0h-8.986a2.247,2.247,0,0,0-2.247,2.247V9.26C148.922,10.368,136,14.913,136,22.466V33.7c0,8.755,17.364,13.479,33.7,13.479M167.452,4.493h4.493V9.027c-.748-.02-1.5-.04-2.247-.04s-1.5.02-2.247.04ZM140.493,22.466c0-3.664,11.377-8.986,29.205-8.986S198.9,18.8,198.9,22.466v4.253c-6.216-4.257-17.952-6.5-29.205-6.5s-22.989,2.242-29.205,6.5ZM169.7,24.712c17.829,0,29.205,5.322,29.205,8.986s-11.377,8.986-29.205,8.986-29.205-5.322-29.205-8.986,11.377-8.986,29.205-8.986" transform="translate(-97.589)" fill="#4a9caf"></path></g></g></svg>